<?xml version="1.0" encoding="utf-8"?>
<!-- Generator: Adobe Illustrator 19.2.1, SVG Export Plug-In . SVG Version: 6.00 Build 0)  -->
<svg version="1.1" id="Layer_1" xmlns="http://www.w3.org/2000/svg" xmlns:xlink="http://www.w3.org/1999/xlink" x="0px" y="0px"
	 viewBox="0 0 68.7 68.7" style="enable-background:new 0 0 68.7 68.7;" xml:space="preserve">
<style type="text/css">
	.st0{fill:#D9CCF1;}
	.st1{fill:#010101;}
	.st2{fill:#FFFFFF;}
	.st3{fill:none;stroke:#FFFFFF;stroke-width:9;stroke-linecap:round;stroke-linejoin:round;stroke-miterlimit:10;}
</style>
<circle class="st0" cx="34.4" cy="34.4" r="34.4"/>
<g>
	<g>
		<circle class="st1" cx="50.5" cy="23.7" r="3.1"/>
	</g>
	<g>
		<g>
			<g>
				<circle class="st2" cx="50.5" cy="51.9" r="4.6"/>
			</g>
			<g>
				<path class="st1" d="M50.4,56.9c-2.7-0.1-4.9-2.4-4.8-5.1c0.1-2.7,2.4-4.9,5.1-4.8s4.9,2.4,4.8,5.1C55.4,54.8,53.1,57,50.4,56.9
					z M50.6,47.8c-2.3-0.1-4.2,1.8-4.3,4.1s1.8,4.2,4.1,4.3c2.3,0.1,4.2-1.8,4.3-4.1S52.9,47.8,50.6,47.8z"/>
			</g>
		</g>
		<g>
			<g>
				<circle class="st2" cx="50.5" cy="51.9" r="3.1"/>
			</g>
			<g>
				<path class="st1" d="M50.4,55.5c-1.9-0.1-3.5-1.7-3.4-3.6s1.7-3.5,3.6-3.4s3.5,1.7,3.4,3.6S52.3,55.5,50.4,55.5z M50.6,49.2
					c-1.5,0-2.8,1.2-2.8,2.7s1.2,2.8,2.7,2.8s2.8-1.2,2.8-2.7C53.3,50.5,52.1,49.2,50.6,49.2z"/>
			</g>
		</g>
		<g>
			<circle class="st1" cx="50.5" cy="51.9" r="3.1"/>
		</g>
		<g>
			<path class="st1" d="M50.4,55.5c-1.9-0.1-3.5-1.7-3.4-3.6s1.7-3.5,3.6-3.4s3.5,1.7,3.4,3.6S52.3,55.5,50.4,55.5z M50.6,49.2
				c-1.5,0-2.8,1.2-2.8,2.7s1.2,2.8,2.7,2.8s2.8-1.2,2.8-2.7C53.3,50.5,52.1,49.2,50.6,49.2z"/>
		</g>
	</g>
	<g>
		<g>
			<g>
				<path class="st2" d="M40.4,56.8h-1.8c-0.2,0-0.4-0.2-0.4-0.4V15.3l1-2.7c0.1-0.3,0.5-0.3,0.6,0l1,2.7v41.1
					C40.8,56.6,40.6,56.8,40.4,56.8z"/>
			</g>
			<g>
				<path class="st1" d="M40.4,57.3h-1.8c-0.5,0-0.8-0.4-0.8-0.8V15.3c0-0.1,0-0.1,0-0.2l1-2.7c0.1-0.3,0.4-0.5,0.7-0.5
					s0.6,0.2,0.7,0.5l1,2.7c0,0.1,0,0.1,0,0.2v41.1C41.2,56.9,40.9,57.3,40.4,57.3z M38.6,56.3h1.7v-41l-0.8-2.3l-0.8,2.3L38.6,56.3
					L38.6,56.3z"/>
			</g>
		</g>
		<g>
			<path class="st1" d="M40.7,55h-2.5c-0.2,0-0.5-0.2-0.5-0.5s0.2-0.5,0.5-0.5h2.5c0.2,0,0.5,0.2,0.5,0.5S40.9,55,40.7,55z"/>
		</g>
		<g>
			<path class="st1" d="M40.5,16.2h-2.3c-0.2,0-0.5-0.2-0.5-0.4c0-0.2,0.2-0.4,0.5-0.4h2.3c0.2,0,0.5,0.2,0.5,0.4
				C41,16,40.8,16.2,40.5,16.2z"/>
		</g>
		<g>
			<rect x="38.2" y="54.5" class="st1" width="2.4" height="2.4"/>
		</g>
	</g>
	<g>
		<g>
			<g>
				<path class="st2" d="M30.7,56.9L30.7,56.9c-1.6,0-2.9-1.3-2.9-2.9V14.8c0-1.6,1.3-2.9,2.9-2.9l0,0c1.6,0,2.9,1.3,2.9,2.9V54
					C33.6,55.6,32.3,56.9,30.7,56.9z"/>
			</g>
			<g>
				<path class="st1" d="M33.2,57.3h-5.1c-0.5,0-0.8-0.4-0.8-0.8V12.2c0-0.5,0.4-0.8,0.8-0.8h5.1c0.5,0,0.8,0.4,0.8,0.8v44.3
					C34,57,33.7,57.3,33.2,57.3z M28.2,56.4h4.9V12.3h-4.9C28.2,12.3,28.2,56.4,28.2,56.4z"/>
			</g>
		</g>
		<g>
			<path class="st1" d="M32.9,29.3h-5.2c-0.2,0-0.5-0.2-0.5-0.5c0-0.2,0.2-0.5,0.5-0.5h5.2c0.2,0,0.5,0.2,0.5,0.5
				C33.4,29.1,33.2,29.3,32.9,29.3z"/>
		</g>
		<g>
			<path class="st1" d="M33.6,34h-5.8c-0.2,0-0.5-0.2-0.5-0.5c0-0.2,0.2-0.5,0.5-0.5h5.8c0.2,0,0.5,0.2,0.5,0.5
				C34,33.8,33.8,34,33.6,34z"/>
		</g>
		<g>
			<rect x="27.8" y="33.5" class="st1" width="5.8" height="23.3"/>
		</g>
		<g>
			<path class="st1" d="M32,19.4c-0.2,0-0.5-0.2-0.5-0.5v-5.5c0-0.2,0.2-0.4,0.5-0.4s0.5,0.2,0.5,0.4v5.5
				C32.4,19.1,32.2,19.4,32,19.4z"/>
		</g>
		<g>
			<path class="st1" d="M32,21.3c-0.2,0-0.5-0.2-0.5-0.5v-0.6c0-0.2,0.2-0.5,0.5-0.5s0.5,0.2,0.5,0.5v0.6
				C32.4,21.1,32.2,21.3,32,21.3z"/>
		</g>
		<g>
			<path class="st1" d="M32,27.4c-0.2,0-0.5-0.2-0.5-0.5v-4.4c0-0.2,0.2-0.5,0.5-0.5s0.5,0.2,0.5,0.5v4.4
				C32.4,27.2,32.2,27.4,32,27.4z"/>
		</g>
	</g>
	<g>
		<g>
			<g>
				<path class="st2" d="M18.8,27.2c0-2.7,0.2-11.1,0.5-12c0.2-0.6,2.5,0.1,3,1.6c0.5,1.5,0.5,9.1,0.4,10.6
					C22.6,29.1,18.8,27.2,18.8,27.2z"/>
			</g>
			<g>
				<path class="st1" d="M21.8,28.6c-1.2,0-2.9-0.8-3.2-1c-0.1-0.1-0.2-0.2-0.2-0.4c0-2.4,0.2-11.1,0.5-12.1c0-0.2,0.2-0.5,0.8-0.5
					c0,0,0,0,0,0c0.9,0,2.5,0.8,3,2.2c0.6,1.6,0.6,9.4,0.4,10.8c0,0.4-0.2,0.7-0.5,0.9C22.4,28.6,22.1,28.6,21.8,28.6z M19.3,26.9
					c1.1,0.5,2.5,0.9,3,0.7c0,0,0.1,0,0.1-0.2c0.2-1.8,0.1-9.1-0.4-10.5c-0.2-0.7-0.9-1.1-1.4-1.4c-0.4-0.2-0.6-0.2-0.8-0.2
					C19.5,16.5,19.2,23.4,19.3,26.9z"/>
			</g>
		</g>
		<g>
			<g>
				<path class="st2" d="M20.7,56.9L20.7,56.9c-1.3,0-2.4-1.1-2.4-2.4V29.4c0-1.3,1.1-2.4,2.4-2.4l0,0c1.3,0,2.4,1.1,2.4,2.4v25.1
					C23.1,55.8,22,56.9,20.7,56.9z"/>
			</g>
			<g>
				<path class="st1" d="M22.8,57.3h-4.1c-0.5,0-0.8-0.4-0.8-0.8V27.3c0-0.5,0.4-0.8,0.8-0.8h4.1c0.5,0,0.8,0.4,0.8,0.8v29.2
					C23.6,57,23.2,57.3,22.8,57.3z M18.7,56.4h4V27.4h-4V56.4z"/>
			</g>
		</g>
		<g>
			<path class="st1" d="M23.1,55.1h-4.9c-0.2,0-0.5-0.2-0.5-0.5c0-0.2,0.2-0.5,0.5-0.5h4.9c0.2,0,0.5,0.2,0.5,0.5
				C23.6,54.9,23.4,55.1,23.1,55.1z"/>
		</g>
		<g>
			<rect x="18.3" y="54.6" class="st1" width="4.9" height="1.9"/>
		</g>
		<g>
			<g>
				<path class="st1" d="M19.7,14.7c0,0.8,0.8,2.1,2.1,2.5c0.1,0,0.2-0.1,0.2-0.2c0-0.9,0.1-2,0.1-2.7c0-1.1-2.4-3.3-2.4-1.1
					C19.6,13.4,19.7,14.6,19.7,14.7z"/>
			</g>
			<g>
				<path class="st1" d="M21.8,17.7c-0.1,0-0.1,0-0.2,0c-1.4-0.4-2.4-1.9-2.4-2.9l0,0c0-0.1,0-0.6,0-0.9c0-0.3,0-0.5,0-0.6
					c0-0.4,0.1-0.7,0.2-1c0.2-0.3,0.5-0.4,0.8-0.4c1,0,2.3,1.4,2.3,2.5c0,0.4,0,0.9,0,1.4c0,0.4,0,0.9,0,1.3c0,0.2-0.1,0.4-0.3,0.5
					C22,17.6,21.9,17.7,21.8,17.7z M21.8,16.8L21.8,16.8L21.8,16.8z M20.1,14.7c0,0.5,0.6,1.5,1.4,1.9c0-0.3,0-0.6,0-0.9
					c0-0.5,0-1,0-1.4c0-0.4-0.4-1-0.9-1.4c-0.3-0.2-0.4-0.2-0.5-0.2c0,0-0.1,0.2-0.1,0.5c0,0.1,0,0.3,0,0.5
					C20.1,14.3,20.1,14.7,20.1,14.7L20.1,14.7z"/>
			</g>
		</g>
		<g>
			<path class="st1" d="M20.7,19c-0.1,0-0.2,0-0.2-0.1c-0.7-0.4-1.1-0.9-1.4-1.2c0,0-0.1-0.1-0.1-0.1c-0.2-0.2-0.1-0.5,0-0.6
				c0.2-0.2,0.5-0.1,0.6,0c0,0,0.1,0.1,0.1,0.2c0.2,0.3,0.6,0.7,1.1,1c0.2,0.1,0.3,0.4,0.2,0.6C21,18.9,20.9,19,20.7,19z"/>
		</g>
	</g>
	<g>
		<g>
			<g>
				<g>
					<circle class="st2" cx="50.5" cy="36.9" r="5.7"/>
				</g>
				<g>
					<path class="st1" d="M50.5,43.1c-3.4,0-6.2-2.8-6.2-6.2s2.8-6.2,6.2-6.2s6.2,2.8,6.2,6.2S53.9,43.1,50.5,43.1z M50.5,31.7
						c-2.9,0-5.2,2.3-5.2,5.2s2.3,5.2,5.2,5.2s5.2-2.3,5.2-5.2S53.4,31.7,50.5,31.7z"/>
				</g>
			</g>
			<g>
				<g>
					<circle class="st2" cx="50.5" cy="36.9" r="3.9"/>
				</g>
				<g>
					<path class="st1" d="M50.5,41.3c-2.4,0-4.4-2-4.4-4.4s2-4.4,4.4-4.4s4.4,2,4.4,4.4S52.9,41.3,50.5,41.3z M50.5,33.5
						c-1.9,0-3.4,1.5-3.4,3.4s1.5,3.4,3.4,3.4s3.4-1.5,3.4-3.4C53.9,35,52.4,33.5,50.5,33.5z"/>
				</g>
			</g>
			<g>
				<g>
					<circle class="st1" cx="50.5" cy="36.9" r="3.9"/>
				</g>
				<g>
					<path class="st1" d="M50.5,41.3c-2.4,0-4.4-2-4.4-4.4s2-4.4,4.4-4.4s4.4,2,4.4,4.4S52.9,41.3,50.5,41.3z M50.5,33.5
						c-1.9,0-3.4,1.5-3.4,3.4s1.5,3.4,3.4,3.4s3.4-1.5,3.4-3.4C53.9,35,52.4,33.5,50.5,33.5z"/>
				</g>
			</g>
		</g>
		<g>
			<path class="st2" d="M53,36.1c-0.2,0-0.3-0.1-0.4-0.2c-0.1-0.2-0.3-0.4-0.4-0.6c-0.2-0.2-0.2-0.5,0-0.6c0.2-0.2,0.5-0.2,0.6,0
				c0.2,0.2,0.4,0.5,0.6,0.8c0.1,0.2,0,0.5-0.2,0.6C53.1,36.1,53,36.1,53,36.1z"/>
		</g>
		<g>
			<path class="st2" d="M50.5,40.1c-0.3,0-0.7,0-1-0.1c-0.2-0.1-0.4-0.3-0.3-0.6c0.1-0.2,0.3-0.4,0.6-0.3c0.2,0.1,0.5,0.1,0.7,0.1
				c1,0,1.9-0.6,2.2-1.6c0.1-0.2,0.3-0.4,0.6-0.3c0.2,0.1,0.4,0.3,0.3,0.6C53.1,39.3,51.9,40.1,50.5,40.1z"/>
		</g>
		<g>
			<path class="st3" d="M47.7,36.9"/>
		</g>
		<g>
			<path class="st3" d="M50.5,34.1"/>
		</g>
	</g>
</g>
</svg>
