<?xml version="1.0" encoding="utf-8"?>
<!-- Generator: Adobe Illustrator 19.2.1, SVG Export Plug-In . SVG Version: 6.00 Build 0)  -->
<svg version="1.1" id="Layer_1" xmlns="http://www.w3.org/2000/svg" xmlns:xlink="http://www.w3.org/1999/xlink" x="0px" y="0px"
	 viewBox="0 0 68.7 68.7" style="enable-background:new 0 0 68.7 68.7;" xml:space="preserve">
<style type="text/css">
	.st0{fill:#D9CCF1;}
	.st1{fill:#FFFFFF;}
	.st2{fill:#010101;}
</style>
<circle class="st0" cx="34.4" cy="34.4" r="34.4"/>
<g>
	<polyline class="st1" points="44.7,27.2 44.7,42.8 47.4,43.5 50.4,45.5 60.5,45.5 55.1,25.9 45.8,25.5 44.7,27.2 	"/>
	<rect x="12.3" y="19.7" class="st1" width="32.4" height="26.6"/>
	<path class="st2" d="M61,45.3l-5.4-19.5c-0.1-0.2-0.3-0.4-0.5-0.4h-9.9v-4.7c0-0.8-0.7-1.5-1.5-1.5H13.3c-0.8,0-1.5,0.7-1.5,1.5
		v24.6c0,0.8,0.7,1.5,1.5,1.5h30.4c0.6,0,1.1-0.3,1.3-0.8h15.5c0.2,0,0.3-0.1,0.4-0.2C61,45.6,61,45.5,61,45.3z M54.7,26.4l2.4,8.8
		H45.2v-8.8H54.7z M43.7,45.8H13.3c-0.3,0-0.5-0.2-0.5-0.5V20.7c0-0.3,0.2-0.5,0.5-0.5h30.4c0.3,0,0.5,0.2,0.5,0.5v5.2v19.4
		C44.2,45.6,44,45.8,43.7,45.8z M45.2,45v-8.8h12.2l2.4,8.8H45.2z"/>
	<circle class="st1" cx="22.6" cy="48.6" r="6.5"/>
	<path class="st2" d="M22.6,55.5c-3.8,0-7-3.1-7-7s3.1-7,7-7s7,3.1,7,7C29.6,52.4,26.5,55.5,22.6,55.5z M22.6,42.6c-3.3,0-6,2.7-6,6
		c0,3.3,2.7,6,6,6s6-2.7,6-6C28.6,45.3,25.9,42.6,22.6,42.6z"/>
	<g>
		<path class="st2" d="M53,32.4c-0.2,0-0.4-0.1-0.5-0.4l-0.8-2.6h-1.3c-0.3,0-0.5-0.2-0.5-0.5s0.2-0.5,0.5-0.5h1.7
			c0.2,0,0.4,0.1,0.5,0.4l0.9,3c0.1,0.3-0.1,0.5-0.3,0.6C53.1,32.4,53.1,32.4,53,32.4z"/>
	</g>
	<g>
		<path class="st2" d="M16.2,28.4c-0.3,0-0.5-0.2-0.5-0.5v-4.4c0-0.3,0.2-0.5,0.5-0.5h2.6c0.3,0,0.5,0.2,0.5,0.5S19.1,24,18.8,24
			h-2.1v3.9C16.7,28.2,16.5,28.4,16.2,28.4z"/>
	</g>
	<g>
		<path class="st2" d="M16.2,33.5c-0.3,0-0.5-0.2-0.5-0.5v-2.2c0-0.3,0.2-0.5,0.5-0.5c0.3,0,0.5,0.2,0.5,0.5V33
			C16.7,33.3,16.5,33.5,16.2,33.5z"/>
	</g>
	<circle class="st1" cx="44.7" cy="48.6" r="5.8"/>
	<path class="st2" d="M44.7,54.8c-3.5,0-6.3-2.8-6.3-6.3s2.8-6.3,6.3-6.3s6.3,2.8,6.3,6.3C50.9,52,48.1,54.8,44.7,54.8z M44.7,43.3
		c-2.9,0-5.3,2.4-5.3,5.3s2.4,5.3,5.3,5.3s5.3-2.4,5.3-5.3S47.6,43.3,44.7,43.3z"/>
</g>
</svg>
