<?xml version="1.0" encoding="utf-8"?>
<!-- Generator: Adobe Illustrator 19.2.1, SVG Export Plug-In . SVG Version: 6.00 Build 0)  -->
<svg version="1.1" id="Layer_1" xmlns="http://www.w3.org/2000/svg" xmlns:xlink="http://www.w3.org/1999/xlink" x="0px" y="0px"
	 viewBox="0 0 68.7 68.7" style="enable-background:new 0 0 68.7 68.7;" xml:space="preserve">
<style type="text/css">
	.st0{fill:#D9CCF1;}
	.st1{fill:#FFFFFF;}
	.st2{fill:#010101;}
	.st3{fill:#FFFFFF;stroke:#010101;stroke-width:6;stroke-linecap:round;stroke-linejoin:round;stroke-miterlimit:10;}
	.st4{clip-path:url(#SVGID_2_);}
	.st5{clip-path:url(#SVGID_4_);}
</style>
<circle class="st0" cx="34.4" cy="34.4" r="34.4"/>
<g>
	<g>
		<g>
			<g>
				<g>
					<path class="st1" d="M51.3,40.6c-0.4,0-0.8-0.1-1.1-0.2c-0.5-0.2-0.9-0.7-0.7-1.3c0.2-0.5,0.7-0.9,1.3-0.7
						c1.3,0.4,3.6-0.3,4.1-0.9c-0.8-0.5-1.6-1.2-2.1-2.1C52,34.3,52,33,52.6,31.9c0.5-1,1.5-1.5,2.6-1.5c0,0,0,0,0.1,0
						c1.2,0,2.2,0.8,2.8,2.1c0.5,1,0.5,2.3,0.1,3.6c0,0,0,0,0,0c1.4-0.2,2.4-1.3,2.8-2.8c0.1-0.6,0.7-0.9,1.2-0.8
						c0.6,0.1,0.9,0.7,0.8,1.2c-0.5,2.3-2.2,4-4.4,4.4c-0.5,0.1-1,0.1-1.4,0.1c-0.1,0.1-0.2,0.2-0.2,0.3
						C55.6,39.9,52.9,40.6,51.3,40.6z M55.1,32.5c-0.3,0-0.6,0.2-0.8,0.5c-0.2,0.4-0.2,0.9,0.2,1.5c0.4,0.6,0.9,1.1,1.5,1.4
						c0.4-0.9,0.4-1.8,0.1-2.4C55.9,32.8,55.5,32.5,55.1,32.5C55.1,32.5,55.1,32.5,55.1,32.5z"/>
				</g>
				<g>
					<path class="st2" d="M51.5,41.1c0,0-0.1,0-0.1,0l0,0c-0.4,0-0.8-0.1-1.2-0.2c-0.4-0.1-0.7-0.4-0.9-0.7C49,39.9,48.9,39.4,49,39
						s0.4-0.7,0.7-0.9s0.8-0.3,1.2-0.1c0.9,0.2,2.3-0.1,3.1-0.4c-0.6-0.5-1.2-1.1-1.6-1.8c-0.9-1.3-0.9-2.9-0.2-4.1
						c0.6-1.1,1.8-1.8,3-1.8l0.1,0c1.4,0.1,2.6,0.9,3.3,2.4c0.4,0.9,0.5,2,0.3,3.1c0.8-0.4,1.4-1.2,1.6-2.2c0.1-0.4,0.3-0.7,0.7-1
						c0.3-0.2,0.8-0.3,1.2-0.2c0.4,0.1,0.7,0.3,0.9,0.7c0.2,0.3,0.3,0.8,0.2,1.2c-0.6,2.5-2.4,4.4-4.8,4.8c-0.4,0.1-0.9,0.1-1.3,0.1
						c0,0-0.1,0.1-0.1,0.1C55.9,40.4,53,41.1,51.5,41.1z M51.4,40.1c1.4,0,4-0.6,5-1.9c0.1-0.1,0.2-0.2,0.2-0.3
						c0.1-0.1,0.3-0.2,0.4-0.2c0.4,0,0.9,0,1.3,0c2-0.3,3.5-1.9,4-4c0-0.1,0-0.3-0.1-0.4c-0.1-0.1-0.2-0.2-0.3-0.2
						c-0.1,0-0.3,0-0.4,0.1c-0.1,0.1-0.2,0.2-0.2,0.3c-0.4,1.8-1.6,3-3.2,3.2c0,0,0,0,0,0c-0.2,0-0.3,0-0.5-0.2
						c-0.1-0.1-0.2-0.3-0.1-0.5c0.4-1.2,0.4-2.4-0.1-3.3c-0.5-1.1-1.4-1.8-2.4-1.8l0,0c-0.9,0-1.7,0.5-2.2,1.3
						c-0.5,0.9-0.5,2.1,0.2,3.1c0.5,0.8,1.2,1.4,2,1.9c0.1,0.1,0.2,0.2,0.2,0.4c0,0.2,0,0.3-0.1,0.4c-0.7,0.7-3.1,1.4-4.6,1
						c-0.1,0-0.3,0-0.4,0S50,39.2,50,39.3c0,0.1,0,0.3,0.1,0.4s0.2,0.2,0.3,0.2C50.7,40,51,40.1,51.4,40.1L51.4,40.1z M56.1,36.3
						c-0.1,0-0.2,0-0.2-0.1c-0.7-0.3-1.3-0.9-1.7-1.6c-0.4-0.7-0.5-1.4-0.2-2c0.3-0.5,0.7-0.7,1.2-0.7l0,0c0,0,0,0,0,0
						c0.6,0,1.1,0.5,1.5,1.2c0.3,0.7,0.3,1.8-0.1,2.8c-0.1,0.1-0.2,0.2-0.3,0.3C56.2,36.3,56.1,36.3,56.1,36.3z M55.1,33
						c-0.1,0-0.2,0.1-0.3,0.2c-0.2,0.3,0,0.7,0.2,1c0.2,0.4,0.5,0.7,0.8,0.9c0.1-0.6,0.1-1.1,0-1.4C55.5,33.1,55.3,33,55.1,33
						C55.1,33,55.1,33,55.1,33z"/>
				</g>
			</g>
			<g>
				<path class="st2" d="M57.7,36.7c-0.5,0-1-0.1-1.3-0.2c-1.2-0.5-2-1.1-2.4-2c-0.4-0.9-0.1-1.7-0.1-1.8l0.9,0.4l-0.5-0.2l0.5,0.2
					c0,0-0.2,0.5,0.1,1c0.3,0.6,0.9,1,1.8,1.4c0.1,0,2.1,0.7,3.1-1l0.9,0.5C59.9,36.3,58.7,36.7,57.7,36.7z"/>
			</g>
			<g>
				<path class="st2" d="M57.7,38.7c-2,0-4.1-1-5.4-2.9l0.8-0.6c1.6,2.3,4.6,3.1,6.8,1.9l0.5,0.9C59.6,38.4,58.7,38.7,57.7,38.7z"/>
			</g>
		</g>
		<g>
			<path class="st1" d="M16.5,23c2,2.7,0.9,6.9,0.9,6.9c0.1,1.2,1.5,1.8,2.4,1.2l5.4-3.8c0.9-0.6,0.7-2.1-0.3-2.6l-6.3-3.1
				C17.5,21.1,14.5,20.3,16.5,23z"/>
		</g>
		<g>
			<path class="st2" d="M18.9,31.9c-0.3,0-0.5-0.1-0.8-0.2c-0.7-0.3-1.2-0.9-1.3-1.7c0-0.1,0-0.1,0-0.2c0,0,1.1-4-0.8-6.5l0,0
				c-0.5-0.7-1.1-1.7-0.5-2.4c0.7-0.8,2.6-0.2,3.2,0.1l6.3,3.1c0.7,0.3,1.1,1,1.2,1.7c0.1,0.7-0.2,1.4-0.8,1.7L20,31.5
				C19.7,31.8,19.3,31.9,18.9,31.9z M17.9,30c0.1,0.4,0.3,0.7,0.7,0.8c0.3,0.1,0.7,0.1,0.9-0.1l5.4-3.8c0.3-0.2,0.4-0.5,0.4-0.9
				c0-0.4-0.3-0.7-0.6-0.9L18.4,22c-0.8-0.4-1.8-0.5-2-0.4c0,0.1,0,0.4,0.6,1.1l0,0C18.9,25.4,18.1,29.3,17.9,30z"/>
		</g>
		<g>
			<g>
				<path class="st1" d="M15.5,46.1h-4.1c-0.8,0-1.4-0.6-1.4-1.4v-5.9c0-0.8,0.6-1.4,1.4-1.4h4.1c0.8,0,1.4,0.6,1.4,1.4v5.9
					C16.9,45.5,16.3,46.1,15.5,46.1z"/>
			</g>
			<g>
				<path class="st2" d="M14.5,46.6h-2.2c-1.6,0-2.9-1.3-2.9-2.9v-3.9c0-1.6,1.3-2.9,2.9-2.9h2.2c1.6,0,2.9,1.3,2.9,2.9v3.9
					C17.4,45.3,16.1,46.6,14.5,46.6z M12.4,37.9c-1,0-1.9,0.8-1.9,1.9v3.9c0,1,0.8,1.9,1.9,1.9h2.2c1,0,1.9-0.8,1.9-1.9v-3.9
					c0-1-0.8-1.9-1.9-1.9H12.4z"/>
			</g>
		</g>
		<g>
			<g>
				<path class="st1" d="M20.8,55.7l1-3.2c0.2-0.6,0.8-0.9,1.5-0.7l3.6,1.1c0.6,0.2,0.9,0.8,0.7,1.5l-1,3.2
					c-0.2,0.6-0.8,0.9-1.5,0.7l-3.6-1.1C21,57,20.6,56.3,20.8,55.7z"/>
			</g>
			<g>
				<path class="st2" d="M25.2,58.7c-0.2,0-0.4,0-0.6-0.1l-2.8-0.9c-1.1-0.3-1.7-1.5-1.3-2.6l0,0l0.8-2.5c0.2-0.5,0.5-1,1-1.2
					s1-0.3,1.6-0.1l2.8,0.9c0.5,0.2,1,0.5,1.2,1c0.3,0.5,0.3,1,0.1,1.6l-0.8,2.5c-0.2,0.5-0.5,1-1,1.2
					C25.9,58.7,25.6,58.7,25.2,58.7z M21.4,55.5c-0.2,0.6,0.1,1.2,0.7,1.3l2.8,0.9c0.6,0.2,1.2-0.1,1.3-0.7l0.8-2.5
					c0.1-0.3,0.1-0.6-0.1-0.8s-0.4-0.4-0.6-0.5l-2.8-0.9c-0.3-0.1-0.6-0.1-0.8,0.1s-0.4,0.4-0.5,0.6L21.4,55.5z"/>
			</g>
		</g>
		<g>
			<g>
				<path class="st1" d="M37,57.6l-1.1-3.2c-0.2-0.6,0.1-1.3,0.7-1.5l3.5-1.2c0.6-0.2,1.3,0.1,1.5,0.7l1.1,3.2
					c0.2,0.6-0.1,1.3-0.7,1.5l-3.5,1.2C37.9,58.5,37.2,58.2,37,57.6z"/>
			</g>
			<g>
				<path class="st2" d="M38.4,58.8c-0.3,0-0.6-0.1-0.9-0.2c-0.5-0.2-0.9-0.7-1-1.2l-0.8-2.4c-0.4-1.1,0.2-2.3,1.3-2.6l2.8-1
					c0.5-0.2,1.1-0.1,1.6,0.1s0.9,0.7,1,1.2l0.8,2.4c0.2,0.5,0.1,1.1-0.1,1.6s-0.7,0.9-1.2,1l-2.8,1C38.8,58.7,38.6,58.8,38.4,58.8z
					 M40.3,52.2c-0.1,0-0.2,0-0.3,0.1l-2.8,1c-0.6,0.2-0.9,0.8-0.7,1.4l0.8,2.4l0,0c0.1,0.3,0.3,0.5,0.5,0.6s0.5,0.1,0.8,0l2.8-1
					c0.6-0.2,0.9-0.8,0.7-1.4L41.3,53C41.1,52.5,40.7,52.2,40.3,52.2z"/>
			</g>
		</g>
		<g>
			<g>
				<path class="st1" d="M40.4,55.1c-5,2.7-17.8-0.1-17.8-0.1c-4.6-2.3-6.2-5.2-8.5-8.7c0,0-2.1-7.3-0.3-12.2s6.6-10.4,11.9-10.4
					l11.9,0.2c5.3,0,12.6,6.9,13.3,11.6c0.7,4.7-0.4,8.8-0.4,8.8C48.9,49.9,45.4,52.3,40.4,55.1z"/>
			</g>
			<g>
				<path class="st2" d="M34.9,56.7h-5.6c-9.3,0-16.9-7.6-16.9-16.9S20,22.9,29.3,22.9h5.6c9.3,0,16.9,7.6,16.9,16.9
					S44.2,56.7,34.9,56.7z M29.3,23.9c-8.8,0-15.9,7.1-15.9,15.9s7.1,15.9,15.9,15.9h5.6c8.8,0,15.9-7.1,15.9-15.9
					s-7.1-15.9-15.9-15.9H29.3z"/>
			</g>
		</g>
		<g>
			<path class="st3" d="M15.9,39.8"/>
		</g>
		<g>
			<circle class="st2" cx="21.6" cy="36" r="1.6"/>
		</g>
		<g>
			<g>
				<path class="st1" d="M27.7,26.4c0.5-0.1,1.1-0.1,1.7-0.1h5.6c0.6,0,1.1,0,1.7,0.1"/>
			</g>
			<g>
				<path class="st2" d="M36.6,26.9C36.5,26.9,36.5,26.9,36.6,26.9c-0.6-0.1-1.1-0.1-1.7-0.1h-5.6c-0.5,0-1.1,0-1.6,0.1
					c-0.3,0-0.5-0.2-0.6-0.4c0-0.3,0.2-0.5,0.4-0.6c0.6-0.1,1.2-0.1,1.7-0.1h5.6c0.6,0,1.2,0,1.7,0.1c0.3,0,0.5,0.3,0.4,0.6
					C37,26.7,36.8,26.9,36.6,26.9z"/>
			</g>
		</g>
		<g>
			<g>
				<defs>
					<rect id="SVGID_1_" x="24.6" y="16.4" width="13.8" height="9.5"/>
				</defs>
				<clipPath id="SVGID_2_">
					<use xlink:href="#SVGID_1_"  style="overflow:visible;"/>
				</clipPath>
				<g class="st4">
					<g>
						<circle class="st1" cx="32.1" cy="22.4" r="4.8"/>
					</g>
					<g>
						<path class="st2" d="M32.1,27.7c-2.9,0-5.3-2.4-5.3-5.3s2.4-5.3,5.3-5.3s5.3,2.4,5.3,5.3S35,27.7,32.1,27.7z M32.1,18
							c-2.4,0-4.3,1.9-4.3,4.3s1.9,4.3,4.3,4.3c2.4,0,4.3-1.9,4.3-4.3S34.5,18,32.1,18z"/>
					</g>
				</g>
			</g>
			<g>
				<defs>
					<rect id="SVGID_3_" x="24.6" y="16.4" width="13.8" height="9.5"/>
				</defs>
				<clipPath id="SVGID_4_">
					<use xlink:href="#SVGID_3_"  style="overflow:visible;"/>
				</clipPath>
				<g class="st5">
					<g>
						<g>
							<path class="st1" d="M33.8,23.3c-0.2,0.3-0.5,0.6-0.9,0.8c-0.9,0.4-2,0-2.4-0.9s0-2,0.9-2.4c0.4-0.2,0.8-0.2,1.2-0.1"/>
						</g>
						<g>
							<path class="st2" d="M32.2,24.7c-0.3,0-0.6-0.1-0.8-0.2c-0.6-0.2-1-0.7-1.3-1.2c-0.2-0.6-0.3-1.2,0-1.8s0.7-1,1.2-1.3
								c0.5-0.2,1-0.2,1.5-0.1c0.3,0.1,0.4,0.3,0.4,0.6s-0.3,0.4-0.6,0.4c-0.3-0.1-0.6,0-0.8,0.1c-0.7,0.3-1,1.1-0.7,1.7
								c0.1,0.3,0.4,0.6,0.7,0.7c0.3,0.1,0.7,0.1,1,0c0.3-0.1,0.5-0.3,0.6-0.6c0.1-0.2,0.4-0.3,0.7-0.2s0.3,0.4,0.2,0.7
								c-0.2,0.5-0.6,0.8-1.1,1C32.8,24.6,32.5,24.7,32.2,24.7z"/>
						</g>
					</g>
					<g>
						<g>
							<path class="st1" d="M31.5,20.8c-0.4-0.9-0.5-1-0.5-1"/>
						</g>
						<g>
							<path class="st2" d="M31.5,21.3c-0.2,0-0.4-0.1-0.5-0.3l-0.5-1c-0.1-0.3,0-0.5,0.3-0.7c0.3-0.1,0.5,0,0.7,0.3l0.5,1
								c0.1,0.3,0,0.5-0.3,0.7C31.7,21.2,31.6,21.3,31.5,21.3z"/>
						</g>
					</g>
					<g>
						<path class="st3" d="M32.3,22.4"/>
					</g>
					<g>
						<g>
							<path class="st1" d="M33,24c0.3,0.7,0.4,1,0.4,1"/>
						</g>
						<g>
							<path class="st2" d="M33.4,25.5c-0.2,0-0.4-0.1-0.5-0.3l-0.4-1c-0.1-0.3,0-0.5,0.3-0.7s0.5,0,0.7,0.3l0.4,1
								c0.1,0.3,0,0.5-0.3,0.7C33.5,25.5,33.5,25.5,33.4,25.5z"/>
						</g>
					</g>
				</g>
			</g>
		</g>
		<g>
			<path class="st2" d="M30.2,15.1c-0.3,0-0.5-0.2-0.5-0.5v-2.3c0-0.3,0.2-0.5,0.5-0.5c0.3,0,0.5,0.2,0.5,0.5v2.3
				C30.7,14.9,30.5,15.1,30.2,15.1z"/>
		</g>
		<g>
			<path class="st2" d="M32.1,16.3c-0.3,0-0.5-0.2-0.5-0.5V8.4c0-0.3,0.2-0.5,0.5-0.5s0.5,0.2,0.5,0.5v7.3
				C32.6,16,32.4,16.3,32.1,16.3z"/>
		</g>
		<g>
			<path class="st2" d="M33.9,14.5c-0.3,0-0.5-0.2-0.5-0.5v-3.7c0-0.3,0.2-0.5,0.5-0.5s0.5,0.2,0.5,0.5V14
				C34.4,14.3,34.1,14.5,33.9,14.5z"/>
		</g>
	</g>
</g>
</svg>
