<?xml version="1.0" encoding="utf-8"?>
<!-- Generator: Adobe Illustrator 23.0.0, SVG Export Plug-In . SVG Version: 6.00 Build 0)  -->
<svg version="1.1" id="Layer_1" xmlns="http://www.w3.org/2000/svg" xmlns:xlink="http://www.w3.org/1999/xlink" x="0px" y="0px"
	 viewBox="0 0 6.6 6.6" style="enable-background:new 0 0 6.6 6.6;" xml:space="preserve">
<style type="text/css">
	.st0{fill-rule:evenodd;clip-rule:evenodd;fill:#222222;}
	.st1{fill:#222222;}
</style>
<g>
	<path class="st0" d="M3.3,0.06001c-1.78998,0-3.23999,1.45001-3.23999,3.23999c0,1.79004,1.45001,3.23999,3.23999,3.23999
		S6.53999,5.09004,6.53999,3.3C6.53999,1.51002,5.08998,0.06001,3.3,0.06001z M3.3,6.00001
		c-1.48999,0-2.70001-1.21002-2.70001-2.70001S1.81001,0.60005,3.3,0.60005S6.00001,1.81001,6.00001,3.3
		S4.78999,6.00001,3.3,6.00001z"/>
</g>
<g>
	<path class="st1" d="M3.55806,4.70335v0.35547H3.17817V4.71995c-0.4082-0.04395-0.75537-0.29199-0.8833-0.64746l0.37158-0.16455
		C2.75825,4.14769,3.0063,4.34007,3.3061,4.34007c0.27539,0,0.54785-0.13184,0.54785-0.4082
		c0-0.26367-0.17969-0.35986-0.49609-0.47168l-0.2041-0.07227c-0.41943-0.14746-0.73535-0.35938-0.73535-0.7915
		c0-0.37939,0.33203-0.65967,0.75977-0.71533V1.54124h0.37988V1.8972c0.33594,0.07568,0.5752,0.30371,0.6875,0.53564
		l-0.3916,0.13574C3.76997,2.3889,3.58149,2.26097,3.32563,2.26097c-0.25977,0-0.45508,0.13965-0.45508,0.33545
		c0,0.2041,0.12012,0.2959,0.39941,0.39209l0.2002,0.06787c0.55957,0.19189,0.83496,0.46387,0.83496,0.87549
		C4.30513,4.36741,3.94575,4.62327,3.55806,4.70335z"/>
</g>
</svg>
