<?xml version="1.0" encoding="utf-8"?>
<!-- Generator: Adobe Illustrator 19.2.1, SVG Export Plug-In . SVG Version: 6.00 Build 0)  -->
<svg version="1.1" id="Layer_1" xmlns="http://www.w3.org/2000/svg" xmlns:xlink="http://www.w3.org/1999/xlink" x="0px" y="0px"
	 viewBox="0 0 68.7 68.7" style="enable-background:new 0 0 68.7 68.7;" xml:space="preserve">
<style type="text/css">
	.st0{fill:#D9CCF1;}
	.st1{fill:none;stroke:#231F20;stroke-width:1.5;stroke-linecap:round;stroke-linejoin:round;stroke-miterlimit:10;}
	.st2{fill:#FFFFFF;}
	.st3{fill:#010101;}
</style>
<circle class="st0" cx="34.4" cy="34.4" r="34.4"/>
<g>
	<polyline class="st1" points="32.2,50.4 32.2,52.9 34,52.9 	"/>
	<polygon class="st2" points="17.4,23 16.9,25.1 20.7,28.5 21.4,29.5 20.4,30.2 14.5,30.1 13.2,35.4 14.3,40.1 21.2,40.7 18.4,43.9 
		16.9,46.6 21.9,52.2 24.3,52.9 29.1,48.2 29.3,54.8 32.2,56.5 39.6,55.6 40,48.3 46,53.2 52.6,46.4 48.1,41.3 48.7,40.5 54.6,40.3 
		55.5,38.3 55.2,30.8 53.5,29.9 48.8,30.2 48.2,29.1 52.5,23.9 46.4,17.7 44.1,18.2 40,22 39.4,14.7 31.5,14.3 29.3,15.1 29.1,22 
		25.9,19.1 23.2,17.6 17.8,22.4 	"/>
	<g>
		<path class="st3" d="M52.2,37.4h-2.4c-0.3,0-0.5-0.2-0.5-0.5s0.2-0.5,0.5-0.5h2.4c0.3,0,0.5,0.2,0.5,0.5S52.5,37.4,52.2,37.4z"/>
	</g>
	<g>
		<path class="st3" d="M23.1,27c-0.1,0-0.3,0-0.4-0.1l-2.1-2.1c-0.2-0.2-0.2-0.5,0-0.7l2.2-2.2c0.2-0.2,0.5-0.2,0.7,0s0.2,0.5,0,0.7
			l-1.9,1.9l1.7,1.7c0.2,0.2,0.2,0.5,0,0.7C23.4,26.9,23.2,27,23.1,27z"/>
	</g>
	<circle class="st0" cx="34.6" cy="35.5" r="7"/>
	<path class="st3" d="M34.6,43c-4.1,0-7.5-3.4-7.5-7.5s3.4-7.5,7.5-7.5s7.5,3.4,7.5,7.5S38.7,43,34.6,43z M34.6,29
		c-3.6,0-6.5,2.9-6.5,6.5S31,42,34.6,42c3.6,0,6.5-2.9,6.5-6.5C41.1,31.9,38.2,29,34.6,29z"/>
	<g>
		<path class="st3" d="M37.7,56.7h-6.2c-1.5,0-2.7-1.2-2.7-2.7v-4.8l-3.4,3.4c-1,1-2.8,1-3.8,0l-4.4-4.4c-1-1-1-2.8,0-3.8l3.4-3.4
			h-4.8c-1.5,0-2.7-1.2-2.7-2.7v-6.2c0-1.5,1.2-2.7,2.7-2.7h4.8L17.2,26c-0.5-0.5-0.8-1.2-0.8-1.9s0.3-1.4,0.8-1.9l4.4-4.4
			c1-1,2.8-1,3.8,0l3.4,3.4v-4.8c0-1.5,1.2-2.7,2.7-2.7h6.2c1.5,0,2.7,1.2,2.7,2.7v4.8l3.4-3.4c1-1,2.8-1,3.8,0l4.4,4.4
			c1,1,1,2.8,0,3.8l-3.4,3.4h4.8c1.5,0,2.7,1.2,2.7,2.7v6.2c0,1.5-1.2,2.7-2.7,2.7h-4.8l3.4,3.4c1,1,1,2.8,0,3.8l-4.4,4.4
			c-1,1-2.8,1-3.8,0l-3.4-3.4V54C40.3,55.5,39.1,56.7,37.7,56.7z M29.3,47.5c0.1,0,0.1,0,0.2,0c0.2,0.1,0.3,0.3,0.3,0.5v6
			c0,0.9,0.8,1.7,1.7,1.7h6.2c0.9,0,1.7-0.8,1.7-1.7v-6c0-0.2,0.1-0.4,0.3-0.5c0.2-0.1,0.4,0,0.5,0.1l4.2,4.2c0.7,0.7,1.7,0.7,2.4,0
			l4.4-4.4c0.7-0.7,0.7-1.7,0-2.4L47,40.9c-0.1-0.1-0.2-0.4-0.1-0.5s0.3-0.3,0.5-0.3h6c0.9,0,1.7-0.8,1.7-1.7v-6.2
			c0-0.9-0.8-1.7-1.7-1.7h-6c-0.2,0-0.4-0.1-0.5-0.3s0-0.4,0.1-0.5l4.2-4.2c0.3-0.3,0.5-0.7,0.5-1.2s-0.2-0.9-0.5-1.2l-4.4-4.4
			c-0.6-0.6-1.8-0.6-2.4,0l-4.2,4.2c-0.2,0.2-0.5,0.2-0.7,0c-0.1-0.1-0.2-0.3-0.2-0.4v-5.9c0-0.9-0.8-1.7-1.7-1.7h-6.2
			c-0.9,0-1.7,0.8-1.7,1.7v6c0,0.2-0.1,0.4-0.3,0.5c-0.2,0.1-0.4,0-0.5-0.1l-4.2-4.2c-0.6-0.6-1.8-0.6-2.4,0l-4.4,4.4
			c-0.7,0.7-0.7,1.7,0,2.4l4.1,4.1c0,0,0.1,0.1,0.1,0.1c0.1,0.1,0.2,0.2,0.2,0.4c0,0.3-0.2,0.5-0.5,0.5h-6c-0.9,0-1.7,0.8-1.7,1.7
			v6.2c0,0.9,0.8,1.7,1.7,1.7h6c0.2,0,0.4,0.1,0.5,0.3c0.1,0.2,0,0.4-0.1,0.5l-0.1,0.1l-4.2,4.2c-0.7,0.7-0.7,1.7,0,2.4l4.4,4.4
			c0.6,0.6,1.8,0.6,2.4,0l4.2-4.2C29,47.5,29.1,47.5,29.3,47.5z"/>
	</g>
</g>
</svg>
