<?xml version="1.0" encoding="utf-8"?>
<!-- Generator: Adobe Illustrator 23.0.3, SVG Export Plug-In . SVG Version: 6.00 Build 0)  -->
<svg version="1.1" id="Layer_1" xmlns="http://www.w3.org/2000/svg" xmlns:xlink="http://www.w3.org/1999/xlink" x="0px" y="0px"
	 viewBox="0 0 6.5999999 6.5999999" style="enable-background:new 0 0 6.5999999 6.5999999;" xml:space="preserve">
<style type="text/css">
	.st0{fill-rule:evenodd;clip-rule:evenodd;fill:#222222;}
</style>
<path class="st0" d="M6.4300051,1.4499876L6.3700075,1.4300292l-1.4400024-0.540039L4.349988,0.6800292L3.6200073,0.8699706
	L2.0000122,1.309973l-0.210022,0.0500488L1.5600097,1.4200194V5.030005l0.4400024,0.1799927L3.8300292,5.990027l0.1199951,0.039978
	l0.2000124-0.0599976L6.1599855,5.280005L6.599988,5.1199708V1.519995L6.4300051,1.4499876z M3.7299926,5.4700074
	L2.0000122,4.740027V1.9300292l0.5599976,0.2399902v1.4199829l0.4000244,0.1099854V2.3400023l0.7699585,0.3200073V5.4700074z
	 M3.9500244,2.269995L3.340039,2.0099852L4.06001,1.769995L3.6500366,1.5900023L2.9099853,1.8299925L2.4500244,1.6399901
	l1.8900149-0.5100098l1.3799438,0.5200195L3.9500244,2.269995z M6.1599855,4.8000245L5.5000124,5.0400147V3.8400023
	L5.099988,3.9399779v1.2400515L4.1699953,5.5099854V2.6600096l1.9899902-0.6900024V4.8000245z"/>
<path class="st0" d="M0.9986149,2.6427937H0.200012c-0.1104568,0-0.1999998-0.0895431-0.1999998-0.1999998l0-0.0000005
	c0-0.1104567,0.089543-0.1999998,0.1999998-0.1999998h0.7986029c0.1104568,0,0.1999998,0.0895431,0.1999998,0.1999998v0.0000005
	C1.1986147,2.5532506,1.1090717,2.6427937,0.9986149,2.6427937z"/>
<path class="st0" d="M0.9986149,3.555017H0.200012c-0.1104568,0-0.1999998-0.0895429-0.1999998-0.1999998l0-0.0000005
	c0-0.1104567,0.089543-0.1999998,0.1999998-0.1999998h0.7986029c0.1104568,0,0.1999998,0.0895431,0.1999998,0.1999998v0.0000005
	C1.1986147,3.4654741,1.1090717,3.555017,0.9986149,3.555017z"/>
<path class="st0" d="M0.9986149,4.4672403H0.200012c-0.1104568,0-0.1999998-0.0895429-0.1999998-0.1999998l0-0.0000005
	c0-0.1104569,0.089543-0.1999998,0.1999998-0.1999998h0.7986029c0.1104568,0,0.1999998,0.0895429,0.1999998,0.1999998v0.0000005
	C1.1986147,4.3776975,1.1090717,4.4672403,0.9986149,4.4672403z"/>
</svg>
