<?xml version="1.0" encoding="utf-8"?>
<!-- Generator: Adobe Illustrator 19.2.1, SVG Export Plug-In . SVG Version: 6.00 Build 0)  -->
<svg version="1.1" id="Layer_1" xmlns="http://www.w3.org/2000/svg" xmlns:xlink="http://www.w3.org/1999/xlink" x="0px" y="0px"
	 viewBox="0 0 68.7 68.7" style="enable-background:new 0 0 68.7 68.7;" xml:space="preserve">
<style type="text/css">
	.st0{fill:#D9CCF1;}
	.st1{fill:#010101;}
	.st2{fill:#FFFFFF;}
</style>
<circle class="st0" cx="34.4" cy="34.4" r="34.4"/>
<g>
	<g>
		<path class="st1" d="M50.8,19.1H17.9c-0.5,0-0.8-0.5-0.6-0.9l1.7-3.4c0.1-0.2,0.3-0.4,0.6-0.4h29.5c0.3,0,0.5,0.1,0.6,0.4l1.7,3.4
			C51.6,18.5,51.3,19.1,50.8,19.1z"/>
		<path class="st1" d="M50.8,19.5H17.9c-0.4,0-0.7-0.2-1-0.5c-0.2-0.3-0.2-0.7,0-1.1l1.7-3.4c0.2-0.4,0.6-0.6,1-0.6h29.5
			c0.4,0,0.8,0.2,1,0.6l1.7,3.4c0.2,0.3,0.2,0.7,0,1.1C51.6,19.3,51.2,19.5,50.8,19.5z M19.6,14.8c-0.1,0-0.2,0.1-0.2,0.1l-1.7,3.4
			c0,0.1,0,0.2,0,0.2c0,0,0.1,0.1,0.2,0.1h32.9c0.1,0,0.2-0.1,0.2-0.1c0,0,0.1-0.1,0-0.2l-1.7-3.4c0-0.1-0.1-0.1-0.2-0.1H19.6z"/>
	</g>
	<g>
		<path class="st2" d="M51.9,55.5h-35c-0.7,0-1.3-0.6-1.2-1.4l1.5-35.2c0.1-0.6,0.6-1.1,1.2-1.1h32c0.6,0,1.2,0.5,1.2,1.1l1.5,35.2
			C53.2,54.9,52.6,55.5,51.9,55.5z"/>
		<path class="st1" d="M51.9,56h-35c-0.5,0-1-0.2-1.3-0.6c-0.3-0.4-0.5-0.9-0.5-1.3l1.5-35.2c0,0,0,0,0,0c0.1-0.9,0.8-1.6,1.8-1.6
			h32c0.9,0,1.7,0.7,1.8,1.6c0,0,0,0,0,0l1.5,35.2c0,0.5-0.1,1-0.5,1.3C52.8,55.8,52.3,56,51.9,56z M17.6,19l-1.5,35.2c0,0,0,0,0,0
			c0,0.2,0,0.4,0.2,0.6c0.1,0.2,0.3,0.2,0.5,0.2h35c0.2,0,0.4-0.1,0.5-0.2c0.1-0.2,0.2-0.4,0.2-0.6c0,0,0,0,0,0L51.1,19
			c0-0.4-0.4-0.7-0.7-0.7h-32C18,18.3,17.7,18.6,17.6,19z"/>
	</g>
	<g>
		<polyline class="st2" points="27.2,52.1 19.2,52.1 19.3,49.6 		"/>
		<path class="st1" d="M27.2,52.6h-8.1c-0.1,0-0.3-0.1-0.4-0.2c-0.1-0.1-0.1-0.2-0.1-0.4l0.1-2.5c0-0.3,0.3-0.5,0.5-0.5
			c0.3,0,0.5,0.3,0.5,0.5l-0.1,1.9h7.5c0.3,0,0.5,0.2,0.5,0.5C27.7,52.3,27.5,52.6,27.2,52.6z"/>
	</g>
	<g>
		<polyline class="st2" points="49.3,45.1 49.6,52.1 38.3,52.1 37,52.1 		"/>
		<path class="st1" d="M49.6,52.6H37c-0.3,0-0.5-0.2-0.5-0.5c0-0.3,0.2-0.5,0.5-0.5h12l-0.3-6.4c0-0.3,0.2-0.5,0.5-0.5
			c0.3,0,0.5,0.2,0.5,0.5l0.3,7c0,0.1,0,0.3-0.1,0.4C49.8,52.5,49.7,52.6,49.6,52.6z"/>
	</g>
	<g>
		<path class="st1" d="M34.5,33c0,0-0.1-0.1-0.1-0.1c0,0-0.1,0.1-0.1,0.1c-2.7-4.9-7.5-2.1-7.5,1.6s7.4,8.3,7.4,8.3h0.2h0.2
			c0,0,7.4-4.5,7.4-8.3S37.1,28.1,34.5,33z"/>
	</g>
	<g>
		<circle class="st2" cx="22.9" cy="23.2" r="1"/>
		<path class="st1" d="M22.9,24.8c-0.9,0-1.5-0.7-1.5-1.5c0-0.9,0.7-1.5,1.5-1.5s1.5,0.7,1.5,1.5C24.4,24.1,23.7,24.8,22.9,24.8z
			 M22.9,22.7c-0.3,0-0.5,0.2-0.5,0.5c0,0.3,0.2,0.5,0.5,0.5c0.3,0,0.5-0.2,0.5-0.5C23.4,22.9,23.2,22.7,22.9,22.7z"/>
	</g>
	<g>
		<circle class="st2" cx="45.6" cy="23.2" r="1"/>
		<path class="st1" d="M45.6,24.8c-0.9,0-1.5-0.7-1.5-1.5c0-0.9,0.7-1.5,1.5-1.5c0.9,0,1.5,0.7,1.5,1.5
			C47.1,24.1,46.4,24.8,45.6,24.8z M45.6,22.7c-0.3,0-0.5,0.2-0.5,0.5c0,0.3,0.2,0.5,0.5,0.5s0.5-0.2,0.5-0.5
			C46.1,22.9,45.8,22.7,45.6,22.7z"/>
	</g>
	<path class="st1" d="M34.7,47.7c-3.5,0-6.3-2.5-8.2-7.3c-1.6-4-2.4-8.8-3-12.3c-0.3-1.7-0.6-3.7-0.9-4.1c-0.2-0.1-0.3-0.2-0.3-0.5
		c0-0.3,0.2-0.5,0.5-0.5c0,0,0,0,0,0c0.9,0,1.1,1.3,1.7,4.9c1.1,6.5,3.1,18.7,10.2,18.7c6.8,0,8.1-10.5,8.9-17.4
		c0.5-4.2,0.8-5.9,1.8-6.1c0.3-0.1,0.6,0.1,0.6,0.4c0.1,0.3-0.1,0.5-0.4,0.6c-0.4,0.4-0.7,3-1,5.2c-0.4,3.6-1,8-2.4,11.7
		C40.7,45.4,38.1,47.7,34.7,47.7z M22.8,24L22.8,24L22.8,24z"/>
</g>
</svg>
