<?xml version="1.0" encoding="utf-8"?>
<!-- Generator: Adobe Illustrator 19.2.1, SVG Export Plug-In . SVG Version: 6.00 Build 0)  -->
<svg version="1.1" id="Layer_1" xmlns="http://www.w3.org/2000/svg" xmlns:xlink="http://www.w3.org/1999/xlink" x="0px" y="0px"
	 viewBox="0 0 68.7 68.7" style="enable-background:new 0 0 68.7 68.7;" xml:space="preserve">
<style type="text/css">
	.st0{fill:#D9CCF1;}
	.st1{fill:#FFFFFF;}
	.st2{fill:#010101;}
</style>
<circle class="st0" cx="34.4" cy="34.4" r="34.4"/>
<g>
	<polygon class="st1" points="15.6,25.6 15.6,53.9 16.1,54.8 52,54.8 52.9,54.5 52.9,52.3 52.9,24.4 52.7,23.4 16.7,23.4 15.8,24.1 
			"/>
	<g>
		<path class="st2" d="M24.6,51.7h-4.2c-0.3,0-0.5-0.2-0.5-0.5v-5.4c0-0.3,0.2-0.5,0.5-0.5s0.5,0.2,0.5,0.5v4.9h3.8
			c0.3,0,0.5,0.2,0.5,0.5S24.8,51.7,24.6,51.7z"/>
	</g>
	<g>
		<path class="st2" d="M32.6,51.7h-3.9c-0.3,0-0.5-0.2-0.5-0.5s0.2-0.5,0.5-0.5h3.9c0.3,0,0.5,0.2,0.5,0.5S32.9,51.7,32.6,51.7z"/>
	</g>
	<path class="st2" d="M53.4,23.6l-0.7-1.3c0,0,0,0,0,0l-4.3-8.7c-0.1-0.2-0.3-0.3-0.4-0.3H21.6c-0.2,0-0.3,0.1-0.4,0.2l-5.7,9.9
		c-0.2,0.3-0.4,0.6-0.4,1v29.4c0,0.9,0.7,1.6,1.6,1.6H52c0.9,0,1.6-0.7,1.6-1.6V24.4C53.6,24.1,53.5,23.8,53.4,23.6z M52.6,53.9
		c0,0.3-0.3,0.6-0.6,0.6H16.7c-0.3,0-0.6-0.3-0.6-0.6V24.4c0-0.3,0.3-0.6,0.6-0.6H52c0.2,0,0.4,0.1,0.5,0.3l0.1,0.1
		c0,0.1,0,0.1,0,0.2L52.6,53.9L52.6,53.9z"/>
	<polygon class="st1" points="31,39.3 38.3,39.3 38.3,23.4 37.6,13.8 32,13.8 31,23.4 	"/>
	<path class="st2" d="M38.8,23.3C38.8,23.3,38.8,23.3,38.8,23.3C38.8,23.3,38.8,23.3,38.8,23.3l-0.7-9.5c0-0.3-0.2-0.5-0.5-0.5H32
		c-0.3,0-0.5,0.2-0.5,0.4l-1,9.5c0,0,0,0,0,0.1c0,0,0,0,0,0l0,0v15.9c0,0.3,0.2,0.5,0.5,0.5h7.4c0.3,0,0.5-0.2,0.5-0.5L38.8,23.3
		L38.8,23.3z M32.4,14.3h4.7l0.7,8.5h-6.3L32.4,14.3z M31.5,38.8l0-15h6.4v15H31.5z"/>
</g>
</svg>
